<svg width="18" height="22" viewBox="0 0 18 22" fill="none" xmlns="http://www.w3.org/2000/svg"><path d="M14.9495 11.6999C14.9604 10.8567 15.1844 10.0299 15.6007 9.29643C16.0169 8.56301 16.6119 7.9468 17.3304 7.50513C16.874 6.85333 16.2719 6.31692 15.5719 5.93852C14.872 5.56011 14.0934 5.35013 13.2981 5.32525C11.6016 5.14717 9.95692 6.34041 9.0924 6.34041C8.21116 6.34041 6.8801 5.34293 5.44678 5.37242C4.51966 5.40237 3.61612 5.67197 2.82417 6.15495C2.03223 6.63792 1.3789 7.3178 0.927841 8.12835C-1.02606 11.5112 0.431375 16.4829 2.30304 19.2174C3.23948 20.5563 4.33391 22.052 5.76594 21.999C7.16727 21.9409 7.69064 21.1054 9.38216 21.1054C11.058 21.1054 11.549 21.999 13.0101 21.9653C14.5138 21.9408 15.4612 20.6203 16.3648 19.2687C17.0376 18.3146 17.5553 17.2601 17.8988 16.1443C17.0252 15.7748 16.2797 15.1564 15.7552 14.366C15.2308 13.5757 14.9506 12.6484 14.9495 11.6999Z" fill="white"></path><path d="M12.1897 3.52653C13.0096 2.5423 13.4135 1.27724 13.3157 0C12.0631 0.13156 10.9061 0.730215 10.0752 1.67668C9.66887 2.13906 9.35771 2.67697 9.15945 3.25968C8.96118 3.84238 8.87971 4.45845 8.91968 5.07266C9.5462 5.07911 10.166 4.94331 10.7324 4.6755C11.2989 4.40768 11.7972 4.01483 12.1897 3.52653Z" fill="white"></path></svg>