<svg width="150" height="150" viewBox="0 0 150 150" fill="none" xmlns="http://www.w3.org/2000/svg">
<defs>
<linearGradient id="paint0_linear_792_8415" x1="165.887" y1="-29.25" x2="-2.58447" y2="173.04" gradientUnits="userSpaceOnUse">
<stop stop-color="#77F4CF"></stop>
<stop offset="1" stop-color="#5095FC"></stop>
</linearGradient>
</defs>
<rect width="150" height="150" rx="75" fill="#D5F7D4"></rect>
<rect width="150" height="150" rx="75" fill="url(#paint0_linear_792_8415)" fill-opacity="0.85"></rect>
<path fill-rule="evenodd" clip-rule="evenodd" d="M76.3954 45.6568C55.6611 45.6568 39.9211 59.1539 39.9211 74.6173C39.9211 77.941 40.628 81.1369 41.9384 84.1212C41.9702 84.1938 41.9991 84.2677 42.0247 84.3427C42.3015 85.1517 42.5529 86.588 41.8976 88.2912C41.7166 88.7615 41.4403 89.194 41.2598 89.463C41.0474 89.7796 40.804 90.1065 40.5688 90.4078C40.1008 91.0074 39.5808 91.613 39.2176 92.0031C39.0089 92.2271 38.7875 92.4572 38.5551 92.6901C38.6934 92.7183 38.8375 92.7474 38.9889 92.7776C39.815 92.9429 41.4743 93.1314 42.5253 93.0876C43.2383 93.0579 43.8686 92.9905 44.4955 92.9227L44.5279 92.9192C44.9007 92.8789 45.3126 92.8343 45.6995 92.8092C46.6501 92.7475 47.6182 92.9247 48.5112 93.3928C48.7188 93.5017 48.9121 93.6359 49.0866 93.7924C55.7219 99.7443 65.4504 103.578 76.3954 103.578C97.1297 103.578 112.87 90.0808 112.87 74.6173C112.87 59.1539 97.1297 45.6568 76.3954 45.6568ZM34.2643 74.6173C34.2643 54.9677 53.7171 40 76.3954 40C99.0737 40 118.527 54.9677 118.527 74.6173C118.527 94.267 99.0737 109.235 76.3954 109.235C64.442 109.235 53.5642 105.148 45.841 98.4714C45.6376 98.4892 45.4012 98.5145 45.1037 98.5467L44.7996 95.7347L45.1037 98.5467L45.0819 98.549C44.4647 98.6158 43.672 98.7015 42.7606 98.7395C41.1344 98.8072 39.0064 98.55 37.879 98.3245C35.6147 97.8714 34.4204 97.5693 31.6354 96.2737C30.6883 95.8331 30.0611 94.9064 30.0042 93.8634C29.9473 92.8203 30.4699 91.8308 31.3635 91.2898C32.611 90.5345 33.996 89.3098 35.0777 88.1481C35.3207 87.8872 35.7347 87.4075 36.1097 86.9271C36.296 86.6884 36.4514 86.4767 36.5626 86.311C36.5997 86.2557 36.6253 86.2152 36.6419 86.1882C36.6465 86.1712 36.6494 86.1575 36.6512 86.1472C35.1084 82.5473 34.2643 78.6647 34.2643 74.6173Z" fill="white"></path>
<path fill-rule="evenodd" clip-rule="evenodd" d="M115.698 74.6176C115.698 92.1741 98.1019 106.407 76.3956 106.407C64.808 106.407 54.3916 102.351 47.1982 95.8981C46.8002 95.6894 46.3557 95.6012 45.8829 95.6318C45.5574 95.653 45.1974 95.6919 44.8 95.7349L44.7999 95.7349L44.7998 95.7349L44.7997 95.7349C44.1761 95.8023 43.4607 95.8797 42.6432 95.9138C41.3045 95.9695 39.4109 95.7467 38.4342 95.5513C36.3509 95.1344 35.3767 94.8948 32.8286 93.7095C34.3746 92.7734 35.9599 91.3516 37.1479 90.0758C37.754 89.4249 39.0159 87.9051 39.2581 87.2757C39.6192 86.3372 39.4671 85.6043 39.3489 85.2585C37.8881 81.9316 37.0929 78.3497 37.0929 74.6176C37.0929 57.061 54.6893 42.8286 76.3956 42.8286C98.1019 42.8286 115.698 57.061 115.698 74.6176ZM58.643 79.1215C61.1304 79.1215 63.1468 77.1051 63.1468 74.6177C63.1468 72.1304 61.1304 70.114 58.643 70.114C56.1556 70.114 54.1392 72.1304 54.1392 74.6177C54.1392 77.1051 56.1556 79.1215 58.643 79.1215ZM80.9336 74.6179C80.9336 77.1053 78.9172 79.1217 76.4298 79.1217C73.9425 79.1217 71.9261 77.1053 71.9261 74.6179C71.9261 72.1306 73.9425 70.1141 76.4298 70.1141C78.9172 70.1141 80.9336 72.1306 80.9336 74.6179ZM94.2162 79.1217C96.7036 79.1217 98.72 77.1053 98.72 74.6179C98.72 72.1306 96.7036 70.1141 94.2162 70.1141C91.7288 70.1141 89.7124 72.1306 89.7124 74.6179C89.7124 77.1053 91.7288 79.1217 94.2162 79.1217Z" fill="white"></path>
</svg>