<svg width="150" height="150" viewBox="0 0 150 150" fill="none" xmlns="http://www.w3.org/2000/svg">
<rect width="150" height="150" rx="75" fill="#FFD5AE"></rect>
<rect width="150" height="150" rx="75" fill="url(#paint0_linear_792_8399)" fill-opacity="0.6"></rect>
<path d="M75.0001 79.6142C77.549 79.6142 79.6153 77.5479 79.6153 74.999C79.6153 72.4501 77.549 70.3838 75.0001 70.3838C72.4512 70.3838 70.3849 72.4501 70.3849 74.999C70.3849 77.5479 72.4512 79.6142 75.0001 79.6142Z" fill="white"></path>
<path d="M74.9999 35C52.9441 35 34.9999 52.9442 34.9999 75C34.9999 97.0558 52.9441 115 74.9999 115C97.0556 115 115 97.0558 115 75C115 52.9442 97.0556 35 74.9999 35ZM95.2057 56.7942L86.1903 79.3327C85.5712 80.8806 84.6442 82.2866 83.4654 83.4655C82.2865 84.6443 80.8805 85.5714 79.3326 86.1904L56.7941 95.2058C56.5145 95.3177 56.2083 95.3451 55.9132 95.2846C55.6182 95.224 55.3475 95.0783 55.1345 94.8653C54.9216 94.6524 54.7758 94.3816 54.7153 94.0866C54.6548 93.7916 54.6822 93.4854 54.7941 93.2058L63.8095 70.6673C64.4285 69.1194 65.3556 67.7134 66.5344 66.5345C67.7132 65.3557 69.1193 64.4286 70.6672 63.8096L93.2057 54.7942C93.4852 54.6823 93.7915 54.6549 94.0865 54.7154C94.3815 54.776 94.6523 54.9217 94.8652 55.1347C95.0782 55.3476 95.2239 55.6184 95.2844 55.9134C95.345 56.2084 95.3176 56.5147 95.2057 56.7942Z" fill="white"></path>
<defs>
<linearGradient id="paint0_linear_792_8399" x1="0.36946" y1="173.625" x2="233.785" y2="-44.5295" gradientUnits="userSpaceOnUse">
<stop stop-color="#F6C245"></stop>
<stop offset="1" stop-color="#EB5547"></stop>
</linearGradient>
</defs>
</svg>